<svg width="1021" height="1021" viewBox="0 0 1021 1021" fill="none" xmlns="http://www.w3.org/2000/svg">
<g clip-path="url(#clip0_5099_9963)">
<g clip-path="url(#clip1_5099_9963)">
<mask id="mask0_5099_9963" style="mask-type:alpha" maskUnits="userSpaceOnUse" x="-9" y="-1" width="1038" height="1023">
<path d="M1028.08 1020.59L-7.49536 1020.59L-7.49527 -9.05333e-05L1028.09 0L1028.08 1020.59Z" fill="url(#paint0_radial_5099_9963)" stroke="#D1D8EE" stroke-opacity="0.71" stroke-width="1.24919"/>
</mask>
<g mask="url(#mask0_5099_9963)">
<path d="M77.449 893.172C112.634 893.173 141.158 864.649 141.158 829.464C141.158 794.278 112.634 765.755 77.449 765.755C42.2636 765.755 13.7402 794.278 13.7402 829.464C13.7402 864.649 42.2636 893.172 77.449 893.172Z" stroke="#BAD0EC" stroke-opacity="0.5" stroke-width="1.24919"/>
<path d="M459.702 893.172C494.887 893.173 523.411 864.649 523.411 829.464C523.411 794.278 494.887 765.755 459.702 765.755C424.517 765.755 395.993 794.278 395.993 829.464C395.993 864.649 424.517 893.172 459.702 893.172Z" stroke="#BAD0EC" stroke-opacity="0.5" stroke-width="1.24919"/>
<path d="M77.449 383.502C112.634 383.502 141.158 354.979 141.158 319.793C141.158 284.608 112.634 256.084 77.449 256.084C42.2636 256.084 13.7402 284.608 13.7402 319.793C13.7402 354.979 42.2636 383.502 77.449 383.502Z" stroke="#BAD0EC" stroke-opacity="0.5" stroke-width="1.24919"/>
<path d="M459.702 383.502C494.887 383.502 523.411 354.979 523.411 319.793C523.411 284.608 494.887 256.084 459.702 256.084C424.517 256.084 395.993 284.608 395.993 319.793C395.993 354.979 424.517 383.502 459.702 383.502Z" stroke="#BAD0EC" stroke-opacity="0.5" stroke-width="1.24919"/>
<path d="M77.449 765.755C112.634 765.755 141.158 737.231 141.158 702.046C141.158 666.861 112.634 638.337 77.449 638.337C42.2636 638.337 13.7402 666.861 13.7402 702.046C13.7402 737.231 42.2636 765.755 77.449 765.755Z" stroke="#BAD0EC" stroke-opacity="0.5" stroke-width="1.24919"/>
<path d="M459.702 765.755C494.887 765.755 523.411 737.231 523.411 702.046C523.411 666.861 494.887 638.337 459.702 638.337C424.517 638.337 395.993 666.861 395.993 702.046C395.993 737.231 424.517 765.755 459.702 765.755Z" stroke="#BAD0EC" stroke-opacity="0.5" stroke-width="1.24919"/>
<path d="M77.449 256.084C112.634 256.084 141.158 227.561 141.158 192.376C141.158 157.19 112.634 128.667 77.449 128.667C42.2636 128.667 13.7402 157.19 13.7402 192.376C13.7402 227.561 42.2636 256.084 77.449 256.084Z" stroke="#BAD0EC" stroke-opacity="0.5" stroke-width="1.24919"/>
<path d="M459.702 256.084C494.887 256.084 523.411 227.561 523.411 192.376C523.411 157.19 494.887 128.667 459.702 128.667C424.517 128.667 395.993 157.19 395.993 192.376C395.993 227.561 424.517 256.084 459.702 256.084Z" stroke="#BAD0EC" stroke-opacity="0.5" stroke-width="1.24919"/>
<path d="M332.285 765.755C367.47 765.755 395.994 737.231 395.994 702.046C395.994 666.861 367.47 638.337 332.285 638.337C297.1 638.337 268.576 666.861 268.576 702.046C268.576 737.231 297.1 765.755 332.285 765.755Z" stroke="#BAD0EC" stroke-opacity="0.5" stroke-width="1.24919"/>
<path d="M714.537 765.755C749.722 765.755 778.246 737.231 778.246 702.046C778.246 666.861 749.722 638.337 714.537 638.337C679.352 638.337 650.828 666.861 650.828 702.046C650.828 737.231 679.352 765.755 714.537 765.755Z" stroke="#BAD0EC" stroke-opacity="0.5" stroke-width="1.24919"/>
<path d="M332.285 256.084C367.47 256.084 395.994 227.561 395.994 192.376C395.994 157.19 367.47 128.667 332.285 128.667C297.1 128.667 268.576 157.19 268.576 192.376C268.576 227.561 297.1 256.084 332.285 256.084Z" stroke="#BAD0EC" stroke-opacity="0.5" stroke-width="1.24919"/>
<path d="M714.537 256.084C749.722 256.084 778.246 227.561 778.246 192.376C778.246 157.19 749.722 128.667 714.537 128.667C679.352 128.667 650.828 157.19 650.828 192.376C650.828 227.561 679.352 256.084 714.537 256.084Z" stroke="#BAD0EC" stroke-opacity="0.5" stroke-width="1.24919"/>
<path d="M332.284 893.172C367.469 893.173 395.993 864.649 395.993 829.464C395.993 794.278 367.469 765.755 332.284 765.755C297.099 765.755 268.575 794.278 268.575 829.464C268.575 864.649 297.099 893.172 332.284 893.172Z" stroke="#BAD0EC" stroke-opacity="0.5" stroke-width="1.24919"/>
<path d="M714.537 893.172C749.722 893.173 778.246 864.649 778.246 829.464C778.246 794.278 749.722 765.755 714.537 765.755C679.352 765.755 650.828 794.278 650.828 829.464C650.828 864.649 679.352 893.172 714.537 893.172Z" stroke="#BAD0EC" stroke-opacity="0.5" stroke-width="1.24919"/>
<path d="M332.285 383.502C367.47 383.502 395.994 354.979 395.994 319.793C395.994 284.608 367.47 256.084 332.285 256.084C297.1 256.084 268.576 284.608 268.576 319.793C268.576 354.979 297.1 383.502 332.285 383.502Z" stroke="#BAD0EC" stroke-opacity="0.5" stroke-width="1.24919"/>
<path d="M714.537 383.502C749.722 383.502 778.246 354.979 778.246 319.793C778.246 284.608 749.722 256.084 714.537 256.084C679.352 256.084 650.828 284.608 650.828 319.793C650.828 354.979 679.352 383.502 714.537 383.502Z" stroke="#BAD0EC" stroke-opacity="0.5" stroke-width="1.24919"/>
<path d="M332.284 1020.59C367.469 1020.59 395.993 992.067 395.993 956.881C395.993 921.696 367.469 893.172 332.284 893.172C297.099 893.172 268.575 921.696 268.575 956.881C268.575 992.067 297.099 1020.59 332.284 1020.59Z" stroke="#BAD0EC" stroke-opacity="0.5" stroke-width="1.24919"/>
<path d="M714.537 1020.59C749.722 1020.59 778.246 992.067 778.246 956.881C778.246 921.696 749.722 893.172 714.537 893.172C679.352 893.172 650.828 921.696 650.828 956.881C650.828 992.067 679.352 1020.59 714.537 1020.59Z" stroke="#BAD0EC" stroke-opacity="0.5" stroke-width="1.24919"/>
<path d="M332.285 510.92C367.47 510.92 395.994 482.396 395.994 447.211C395.994 412.025 367.47 383.502 332.285 383.502C297.1 383.502 268.576 412.025 268.576 447.211C268.576 482.396 297.1 510.92 332.285 510.92Z" stroke="#BAD0EC" stroke-opacity="0.5" stroke-width="1.24919"/>
<path d="M714.537 510.92C749.722 510.92 778.246 482.396 778.246 447.211C778.246 412.025 749.722 383.502 714.537 383.502C679.352 383.502 650.828 412.025 650.828 447.211C650.828 482.396 679.352 510.92 714.537 510.92Z" stroke="#BAD0EC" stroke-opacity="0.5" stroke-width="1.24919"/>
<path d="M204.867 1020.59C240.052 1020.59 268.576 992.067 268.576 956.881C268.576 921.696 240.052 893.172 204.867 893.172C169.682 893.172 141.158 921.696 141.158 956.881C141.158 992.067 169.682 1020.59 204.867 1020.59Z" stroke="#BAD0EC" stroke-opacity="0.5" stroke-width="1.24919"/>
<path d="M587.12 1020.59C622.305 1020.59 650.829 992.067 650.829 956.881C650.829 921.696 622.305 893.172 587.12 893.172C551.935 893.172 523.411 921.696 523.411 956.881C523.411 992.067 551.935 1020.59 587.12 1020.59Z" stroke="#BAD0EC" stroke-opacity="0.5" stroke-width="1.24919"/>
<path d="M204.867 510.92C240.052 510.92 268.576 482.396 268.576 447.211C268.576 412.025 240.052 383.502 204.867 383.502C169.682 383.502 141.158 412.025 141.158 447.211C141.158 482.396 169.682 510.92 204.867 510.92Z" stroke="#BAD0EC" stroke-opacity="0.5" stroke-width="1.24919"/>
<path d="M587.12 510.92C622.305 510.92 650.829 482.396 650.829 447.211C650.829 412.025 622.305 383.502 587.12 383.502C551.935 383.502 523.411 412.025 523.411 447.211C523.411 482.396 551.935 510.92 587.12 510.92Z" stroke="#BAD0EC" stroke-opacity="0.5" stroke-width="1.24919"/>
<path d="M332.285 638.337C367.47 638.337 395.994 609.814 395.994 574.628C395.994 539.443 367.47 510.92 332.285 510.92C297.1 510.92 268.576 539.443 268.576 574.628C268.576 609.814 297.1 638.337 332.285 638.337Z" stroke="#BAD0EC" stroke-opacity="0.5" stroke-width="1.24919"/>
<path d="M714.537 638.337C749.722 638.337 778.246 609.814 778.246 574.628C778.246 539.443 749.722 510.92 714.537 510.92C679.352 510.92 650.828 539.443 650.828 574.628C650.828 609.814 679.352 638.337 714.537 638.337Z" stroke="#BAD0EC" stroke-opacity="0.5" stroke-width="1.24919"/>
<path d="M332.285 128.667C367.47 128.667 395.994 100.143 395.994 64.9581C395.994 29.7727 367.47 1.24928 332.285 1.24927C297.1 1.24927 268.576 29.7727 268.576 64.9581C268.576 100.143 297.1 128.667 332.285 128.667Z" stroke="#BAD0EC" stroke-opacity="0.5" stroke-width="1.24919"/>
<path d="M714.537 128.667C749.722 128.667 778.246 100.143 778.246 64.9581C778.246 29.7727 749.722 1.24928 714.537 1.24927C679.352 1.24927 650.828 29.7727 650.828 64.9581C650.828 100.143 679.352 128.667 714.537 128.667Z" stroke="#BAD0EC" stroke-opacity="0.5" stroke-width="1.24919"/>
<path d="M141.158 893.172L13.7401 893.172L13.7401 1020.59L141.158 1020.59L141.158 893.172ZM141.158 893.172L268.575 893.172L268.575 765.755M141.158 893.172L141.158 765.755M523.411 893.172L395.993 893.172L395.993 1020.59L523.411 1020.59L523.411 893.172ZM523.411 893.172L650.828 893.172L650.828 765.755M523.411 893.172L523.411 765.755M141.158 383.502L13.7401 383.502L13.7401 510.92M141.158 383.502L141.158 510.92M141.158 383.502L268.575 383.502L268.575 256.084M141.158 383.502L141.158 256.084M141.158 510.92L13.7401 510.92M141.158 510.92L141.158 638.337M141.158 510.92L268.575 510.92L268.575 638.337M13.7401 510.92L13.7401 638.337L141.158 638.337M523.411 383.502L395.993 383.502L395.993 510.92M523.411 383.502L523.411 510.92M523.411 383.502L650.828 383.502L650.828 256.084M523.411 383.502L523.411 256.084M523.411 510.92L395.993 510.92M523.411 510.92L523.411 638.337M523.411 510.92L650.828 510.92L650.828 638.337M395.993 510.92L395.993 638.337L523.411 638.337M141.158 765.755L268.575 765.755M141.158 765.755L141.158 638.337M268.575 765.755L268.575 638.337M523.411 765.755L650.828 765.755M523.411 765.755L523.411 638.337M650.828 765.755L650.828 638.337M141.158 256.084L268.575 256.084M141.158 256.084L141.158 128.667M268.575 256.084L268.575 128.667M523.411 256.084L650.828 256.084M523.411 256.084L523.411 128.667M650.828 256.084L650.828 128.667M141.158 638.337L268.575 638.337M523.411 638.337L650.828 638.337M141.158 128.667L268.575 128.667M141.158 128.667L141.158 1.24918M141.158 128.667L13.7402 128.667L13.7402 1.24917L141.158 1.24918M268.575 128.667L268.575 1.24919L141.158 1.24918M523.411 128.667L650.828 128.667M523.411 128.667L523.411 1.24921M523.411 128.667L395.993 128.667L395.993 1.2492L523.411 1.24921M650.828 128.667L650.828 1.24922L523.411 1.24921" stroke="#BAD0EC" stroke-opacity="0.5" stroke-width="1.24919"/>
</g>
</g>
</g>
<defs>
<radialGradient id="paint0_radial_5099_9963" cx="0" cy="0" r="1" gradientUnits="userSpaceOnUse" gradientTransform="translate(611.479 1139.26) rotate(-98.2336) scale(1173.22 1166.57)">
<stop offset="0.133" stop-color="#FBFBFD" stop-opacity="0.09"/>
<stop offset="0.633" stop-color="#FBFBFD" stop-opacity="0.39"/>
<stop offset="0.952" stop-color="#FBFBFD" stop-opacity="0"/>
</radialGradient>
<clipPath id="clip0_5099_9963">
<rect width="1020.59" height="1020.59" fill="white" transform="translate(1020.59 1020.59) rotate(-180)"/>
</clipPath>
<clipPath id="clip1_5099_9963">
<rect width="1035.58" height="1020.59" fill="white" transform="translate(1028.08 1020.59) rotate(-180)"/>
</clipPath>
</defs>
</svg>
