<svg width="40" height="40" viewBox="0 0 40 40" fill="none" xmlns="http://www.w3.org/2000/svg">
<path d="M20.0003 11.6666C15.4087 11.6666 11.667 15.4083 11.667 20C11.667 24.5916 15.4087 28.3333 20.0003 28.3333C24.592 28.3333 28.3337 24.5916 28.3337 20C28.3337 15.4083 24.592 11.6666 20.0003 11.6666ZM23.9837 18.0833L19.2587 22.8083C19.142 22.925 18.9837 22.9916 18.817 22.9916C18.6503 22.9916 18.492 22.925 18.3753 22.8083L16.017 20.45C15.7753 20.2083 15.7753 19.8083 16.017 19.5666C16.2587 19.325 16.6587 19.325 16.9003 19.5666L18.817 21.4833L23.1003 17.2C23.342 16.9583 23.742 16.9583 23.9837 17.2C24.2253 17.4416 24.2253 17.8333 23.9837 18.0833Z" fill="#0C78F1"/>
<rect x="0.25" y="0.25" width="39.5" height="39.5" rx="9.75" stroke="#0C78F1" stroke-width="0.5"/>
</svg>
