<svg width="40" height="40" viewBox="0 0 40 40" fill="none" xmlns="http://www.w3.org/2000/svg">
<path d="M27.5 28.3334H12.5C12.1583 28.3334 11.875 28.05 11.875 27.7084C11.875 27.3667 12.1583 27.0834 12.5 27.0834H27.5C27.8417 27.0834 28.125 27.3667 28.125 27.7084C28.125 28.05 27.8417 28.3334 27.5 28.3334Z" fill="#0C78F1"/>
<path d="M25.8505 12.9C24.2338 11.2834 22.6505 11.2417 20.9921 12.9L19.9838 13.9084C19.9005 13.9917 19.8671 14.125 19.9005 14.2417C20.5338 16.45 22.3005 18.2167 24.5088 18.85C24.5421 18.8584 24.5755 18.8667 24.6088 18.8667C24.7005 18.8667 24.7838 18.8334 24.8505 18.7667L25.8505 17.7584C26.6755 16.9417 27.0755 16.15 27.0755 15.35C27.0838 14.525 26.6838 13.725 25.8505 12.9Z" fill="#0C78F1"/>
<path d="M23.0079 19.6083C22.7663 19.4916 22.5329 19.375 22.3079 19.2416C22.1246 19.1333 21.9496 19.0166 21.7746 18.8916C21.6329 18.8 21.4663 18.6666 21.3079 18.5333C21.2913 18.525 21.2329 18.475 21.1663 18.4083C20.8913 18.175 20.5829 17.875 20.3079 17.5416C20.2829 17.525 20.2413 17.4666 20.1829 17.3916C20.0996 17.2916 19.9579 17.125 19.8329 16.9333C19.7329 16.8083 19.6163 16.625 19.5079 16.4416C19.3746 16.2166 19.2579 15.9916 19.1413 15.7583C18.9883 15.4305 18.5581 15.3331 18.3023 15.5889L13.6163 20.275C13.5079 20.3833 13.4079 20.5916 13.3829 20.7333L12.9329 23.925C12.8496 24.4916 13.0079 25.025 13.3579 25.3833C13.6579 25.675 14.0746 25.8333 14.5246 25.8333C14.6246 25.8333 14.7246 25.825 14.8246 25.8083L18.0246 25.3583C18.1746 25.3333 18.3829 25.2333 18.4829 25.125L23.1767 20.4312C23.4274 20.1805 23.3332 19.7492 23.0079 19.6083Z" fill="#0C78F1"/>
<rect x="0.25" y="0.25" width="39.5" height="39.5" rx="9.75" stroke="#0C78F1" stroke-width="0.5"/>
</svg>
