<svg width="51" height="51" viewBox="0 0 51 51" fill="none" xmlns="http://www.w3.org/2000/svg">
<rect width="51" height="51" rx="25.5" fill="#F8FBFF"/>
<path d="M20.88 34.24C17.32 34.24 14.9 31.16 14.9 26.54C14.9 21.92 17.3 18.86 20.86 18.86C24.46 18.86 26.84 21.94 26.84 26.54C26.84 31.14 24.48 34.24 20.88 34.24ZM20.88 31.92C23.02 31.92 24.34 29.88 24.34 26.54C24.34 23.22 23.02 21.18 20.86 21.18C18.74 21.18 17.42 23.22 17.42 26.54C17.42 29.86 18.76 31.92 20.88 31.92ZM34.5305 24.32C37.4105 24.32 39.4505 26.3 39.4505 29.1C39.4505 32.08 37.2105 34.24 34.1505 34.24C31.7505 34.24 29.7505 32.96 29.0105 30.96L31.0105 29.86C31.5105 31.14 32.7505 31.96 34.1505 31.96C35.7705 31.96 36.9105 30.86 36.9105 29.22C36.9105 27.6 35.7905 26.5 34.1305 26.5C33.0905 26.5 32.2305 26.96 31.8305 27.8L29.9305 27.34L31.1105 19.1H38.9905V21.24L32.8705 21.22L32.3505 24.9C32.9305 24.52 33.6505 24.32 34.5305 24.32Z" fill="#0C78F1"/>
</svg>
