<svg width="51" height="51" viewBox="0 0 51 51" fill="none" xmlns="http://www.w3.org/2000/svg">
<rect width="51" height="51" rx="25.5" fill="#F8FBFF"/>
<path d="M20.88 34.24C17.32 34.24 14.9 31.16 14.9 26.54C14.9 21.92 17.3 18.86 20.86 18.86C24.46 18.86 26.84 21.94 26.84 26.54C26.84 31.14 24.48 34.24 20.88 34.24ZM20.88 31.92C23.02 31.92 24.34 29.88 24.34 26.54C24.34 23.22 23.02 21.18 20.86 21.18C18.74 21.18 17.42 23.22 17.42 26.54C17.42 29.86 18.76 31.92 20.88 31.92ZM31.6105 34V21.26H28.8105V19.12L34.1505 19.1V34H31.6105Z" fill="#0C78F1"/>
</svg>
