<svg width="25" height="25" viewBox="0 0 25 25" fill="none" xmlns="http://www.w3.org/2000/svg">
<path d="M18.6871 19.393C21.3126 19.393 23.5004 17.2052 23.5004 14.5797C23.5004 11.9543 21.3126 9.76649 18.6871 9.76649H18.0308C18.2496 8.45379 18.4684 8.01619 20.328 6.15659C17.5932 6.37537 12.78 9.65719 13.7645 14.908C14.3115 17.7522 16.0617 19.393 18.6871 19.393Z" fill="#0D3060"/>
<path d="M1.63075 15.1267C2.06832 17.7521 3.92795 19.393 6.55335 19.393C9.17875 19.393 11.3666 17.2052 11.3666 14.5797C11.3666 11.9543 9.17875 9.76649 6.55335 9.76649H5.897C6.11578 8.45379 6.33457 8.01619 8.1942 6.15659C5.4594 6.48477 0.646148 9.76639 1.63075 15.1267Z" fill="#0D3060"/>
</svg>
