<svg width="40" height="40" viewBox="0 0 40 40" fill="none" xmlns="http://www.w3.org/2000/svg">
<path d="M19.9999 24.4584C20.7501 24.4584 21.3583 23.8502 21.3583 23.1C21.3583 22.3498 20.7501 21.7417 19.9999 21.7417C19.2497 21.7417 18.6416 22.3498 18.6416 23.1C18.6416 23.8502 19.2497 24.4584 19.9999 24.4584Z" fill="#0C78F1"/>
<path d="M25.2337 17.9416V16.9C25.2337 14.65 24.692 11.6666 20.0003 11.6666C15.3087 11.6666 14.767 14.65 14.767 16.9V17.9416C12.4337 18.2333 11.667 19.4166 11.667 22.325V23.875C11.667 27.2916 12.7087 28.3333 16.1253 28.3333H23.8753C27.292 28.3333 28.3337 27.2916 28.3337 23.875V22.325C28.3337 19.4166 27.567 18.2333 25.2337 17.9416ZM20.0003 25.6166C18.6087 25.6166 17.4837 24.4833 17.4837 23.1C17.4837 21.7083 18.617 20.5833 20.0003 20.5833C21.3837 20.5833 22.517 21.7166 22.517 23.1C22.517 24.4916 21.392 25.6166 20.0003 25.6166ZM16.1253 17.8666C16.0587 17.8666 16.0003 17.8666 15.9337 17.8666V16.9C15.9337 14.4583 16.6253 12.8333 20.0003 12.8333C23.3753 12.8333 24.067 14.4583 24.067 16.9V17.875C24.0003 17.875 23.942 17.875 23.8753 17.875H16.1253V17.8666Z" fill="#0C78F1"/>
<rect x="0.25" y="0.25" width="39.5" height="39.5" rx="9.75" stroke="#0C78F1" stroke-width="0.5"/>
</svg>
