<svg width="51" height="51" viewBox="0 0 51 51" fill="none" xmlns="http://www.w3.org/2000/svg">
<rect width="51" height="51" rx="25.5" fill="#F8FBFF"/>
<path d="M20.88 34.24C17.32 34.24 14.9 31.16 14.9 26.54C14.9 21.92 17.3 18.86 20.86 18.86C24.46 18.86 26.84 21.94 26.84 26.54C26.84 31.14 24.48 34.24 20.88 34.24ZM20.88 31.92C23.02 31.92 24.34 29.88 24.34 26.54C24.34 23.22 23.02 21.18 20.86 21.18C18.74 21.18 17.42 23.22 17.42 26.54C17.42 29.86 18.76 31.92 20.88 31.92ZM35.6505 24.78C37.8505 25.14 39.3505 26.9 39.3505 29.24C39.3505 32.12 37.1105 34.24 34.0505 34.24C31.6905 34.24 29.7705 32.98 29.0105 30.96L31.0305 29.86C31.5305 31.2 32.6305 31.96 34.0505 31.96C35.7105 31.96 36.8305 30.9 36.8305 29.3C36.8305 27.74 35.7305 26.7 34.0505 26.7C33.5305 26.7 32.9905 26.8 32.5905 26.96L32.0905 25.7L35.9305 21.26L29.7105 21.24V19.1H38.7705V21.12L35.6505 24.78Z" fill="#0C78F1"/>
</svg>
