<svg width="51" height="51" viewBox="0 0 51 51" fill="none" xmlns="http://www.w3.org/2000/svg">
<rect width="51" height="51" rx="25.5" fill="#F8FBFF"/>
<path d="M20.88 34.24C17.32 34.24 14.9 31.16 14.9 26.54C14.9 21.92 17.3 18.86 20.86 18.86C24.46 18.86 26.84 21.94 26.84 26.54C26.84 31.14 24.48 34.24 20.88 34.24ZM20.88 31.92C23.02 31.92 24.34 29.88 24.34 26.54C24.34 23.22 23.02 21.18 20.86 21.18C18.74 21.18 17.42 23.22 17.42 26.54C17.42 29.86 18.76 31.92 20.88 31.92ZM29.0905 34L29.0705 32.12L33.1305 27.9C35.5305 25.42 36.2505 24.5 36.2505 23.28C36.2505 21.94 35.3905 21.14 33.9905 21.14C32.5905 21.14 31.5305 21.9 31.0705 23.24L29.0505 22.14C29.7505 20.12 31.6905 18.86 34.1105 18.86C36.8705 18.86 38.7905 20.56 38.7905 23.04C38.7905 24.68 37.8505 26.12 35.8905 28.14L32.3305 31.84H39.0505V34H29.0905Z" fill="#0C78F1"/>
</svg>
