<svg width="40" height="40" viewBox="0 0 40 40" fill="none" xmlns="http://www.w3.org/2000/svg">
<path d="M24.167 15.8334C22.422 15.8334 21.1578 17.1392 19.9995 18.6217C18.8412 17.1392 17.5778 15.8334 15.8337 15.8334C13.5362 15.8334 11.667 17.7025 11.667 20C11.6657 20.5468 11.7724 21.0885 11.981 21.5939C12.1897 22.0993 12.4962 22.5585 12.8828 22.945C13.268 23.3334 13.7264 23.6413 14.2315 23.851C14.7367 24.0608 15.2784 24.1681 15.8253 24.1667H15.8353C17.5762 24.1625 18.8395 22.8567 19.9987 21.3742C21.1578 22.8592 22.422 24.1667 24.167 24.1667C26.4645 24.1667 28.3337 22.2975 28.3337 20C28.3337 17.7025 26.4645 15.8334 24.167 15.8334ZM15.832 22.5L15.8253 23.3334V22.5C15.1595 22.5 14.5337 22.24 14.0637 21.7684C13.7153 21.418 13.4785 20.9724 13.3829 20.4877C13.2873 20.003 13.3373 19.5008 13.5265 19.0445C13.7158 18.5881 14.0358 18.1979 14.4464 17.9231C14.8569 17.6483 15.3396 17.5011 15.8337 17.5C16.942 17.5 17.967 18.6984 18.9553 19.9984C17.9653 21.2975 16.9403 22.4975 15.832 22.5ZM24.167 22.5C23.0587 22.5 22.0328 21.3 21.0428 19.9984C22.032 18.6984 23.057 17.5 24.167 17.5C25.5453 17.5 26.667 18.6217 26.667 20C26.667 21.3784 25.5453 22.5 24.167 22.5Z" fill="#0C78F1"/>
<rect x="0.25" y="0.25" width="39.5" height="39.5" rx="9.75" stroke="#0C78F1" stroke-width="0.5"/>
</svg>
